<?xml version="1.0" encoding="UTF-8" standalone="no"?>
<!-- Created with Inkscape (http://www.inkscape.org/) -->
<svg id="svg3253" xmlns:rdf="http://www.w3.org/1999/02/22-rdf-syntax-ns#" xmlns="http://www.w3.org/2000/svg" height="25" width="25" version="1.1" xmlns:cc="http://creativecommons.org/ns#" xmlns:dc="http://purl.org/dc/elements/1.1/">
	<metadata id="metadata3258">
		<rdf:RDF>
			<cc:Work rdf:about="">
				<dc:format>image/svg+xml</dc:format>
				<dc:type rdf:resource="http://purl.org/dc/dcmitype/StillImage"/>
				<dc:title/>
			</cc:Work>
		</rdf:RDF>
	</metadata>
	<g id="layer1" transform="translate(0.32051275,-1028.3237)">
		<g id="g3117" transform="translate(-0.3205128,1028.3237)">
			<path id="path3119" fill="#4a6da7" d="M25,12.5c0,6.898-5.598,12.5-12.5,12.5-6.903,0-12.5-5.602-12.5-12.5s5.597-12.5,12.5-12.5c6.902,0,12.5,5.602,12.5,12.5z"/>
		</g>
		<path id="path3121" fill="#FFF" d="m10.419,1047.9v-6.312h-1.837v-2.501h1.837v-2.136c0-1.677,1.083-3.219,3.583-3.219,1.014,0,1.762,0.098,1.762,0.098l-0.06,2.335s-0.763-0.01-1.596-0.01c-0.901,0-1.046,0.415-1.046,1.104v1.826h2.713l-0.117,2.501h-2.596v6.312h-2.643z"/>
	</g>
</svg>
